<svg xmlns="http://www.w3.org/2000/svg" width="40.395" height="40.395" viewBox="0 0 40.395 40.395"><g id="Group_17" data-name="Group 17" transform="translate(-127.75 -127.75)" fill="#fff" stroke="#fff" stroke-width=".5"><path id="Path_39" data-name="Path 39" d="M134.352 209.846a.623.623 0 0 0 .879.063l4.1-3.555-5.305-1.149a.623.623 0 1 0-.264 1.219l1.612.349c-4.664 1.508-7.377 3.8-7.377 6.336 0 3.25 4.481 6 11.125 7.3a39.944 39.944 0 0 1-.177-1.3c-6.029-1.253-9.7-3.681-9.7-6 0-1.9 2.326-3.751 6.224-5.057l-1.055.914a.624.624 0 0 0-.062.88z" transform="translate(0 -65.162)"/><path id="Path_40" data-name="Path 40" d="M238.158 210.895a.623.623 0 0 0-.284 1.214c5.47 1.279 8.869 3.5 8.869 5.8 0 3.311-7.514 6.857-18.7 6.857a48.707 48.707 0 0 1-5.161-.267c.063.437.133.86.207 1.271 1.579.158 3.238.242 4.954.242 11.185 0 19.947-3.559 19.947-8.1 0-2.956-3.675-5.579-9.832-7.017z" transform="translate(-80.096 -69.962)"/><path id="Path_41" data-name="Path 41" d="M218.645 157.355a.623.623 0 0 0-.749.464c-1.28 5.445-3.5 8.828-5.792 8.828-3.311 0-6.857-7.514-6.857-18.7s3.545-18.7 6.857-18.7 6.857 7.514 6.857 18.7c0 .381-.006.762-.015 1.142l-.632-1.426a.623.623 0 0 0-1.14.505l2.2 4.962 2.649-4.738a.623.623 0 1 0-1.088-.608l-.743 1.33c.009-.389.015-.778.015-1.167 0-11.185-3.559-19.947-8.1-19.947s-8.1 8.762-8.1 19.947 3.559 19.947 8.1 19.947c2.946 0 5.565-3.66 7.005-9.79a.623.623 0 0 0-.467-.749z" transform="translate(-64.156)"/></g></svg>