<svg xmlns="http://www.w3.org/2000/svg" viewBox="0 0 54.2 74.7"><style>.st0{display:none}.st1{fill:none}.st1,.st2{display:inline}.st3{fill:#fff}</style><g id="Text" class="st0"><path class="st1" d="M69.1-642.6c7 0 12.7-5.7 12.7-12.7 0-7-5.7-12.7-12.7-12.7-7 0-12.7 5.7-12.7 12.7.1 7 5.7 12.7 12.7 12.7zm177.9 0c7 0 12.7-5.7 12.7-12.7 0-7-5.7-12.7-12.7-12.7-7 0-12.7 5.7-12.7 12.7 0 7 5.7 12.7 12.7 12.7z"/><path class="st2" d="M5.8-645.8h25.6v22.3h5.5v-49.9h-5.5v22.1H5.8v-22.1H.3v49.9h5.5zM53-628.9h31.7v5.4H53zm16.1-8.4c10 0 18.1-8.1 18.1-18.1 0-10-8.1-18.1-18.1-18.1-10 0-18.1 8.1-18.1 18.1.1 10 8.2 18.1 18.1 18.1zm0-30.7c7 0 12.7 5.7 12.7 12.7 0 7-5.7 12.7-12.7 12.7-7 0-12.7-5.7-12.7-12.7.1-7 5.7-12.7 12.7-12.7zm39.5 22.2h7.8l13.9 22.2h6.4l-14-22.5 2.2-.6c4.8-1.3 10.5-4.7 10.5-13 0-13.7-15.4-13.8-16.1-13.8h-16v6.7l9.9 15.6h-9.9v27.6h5.5v-22.2zm.3-22.1h10.3c3.7 0 10.6 1.7 10.6 8.3 0 4.7-3.5 7.8-9.3 8.3l-1.1.1-10.5-16.7zm42.9-5.5h5.5v49.9h-5.5zm21.6-.2v5.4h28.7l-27.4 44.5h38.4v-5.5h-28.6l27.3-44.4zm73.6 36.3c10 0 18.1-8.1 18.1-18.1 0-10-8.1-18.1-18.1-18.1-10 0-18.1 8.1-18.1 18.1 0 10 8.1 18.1 18.1 18.1zm0-30.7c7 0 12.7 5.7 12.7 12.7 0 7-5.7 12.7-12.7 12.7-7 0-12.7-5.7-12.7-12.7 0-7 5.7-12.7 12.7-12.7zm-16.1 39.1h31.7v5.4h-31.7zm55.5-36.3l29.2 41.7h6.3v-49.9h-5.4v41.7l-29.2-41.7H281v49.9h5.4z"/><path class="st1" d="M-.9-610h323.8v29.5H-.9z"/><text transform="translate(-.884 -592.938)" class="st2"><tspan x="0" y="0" font-family="SceneAltMedium" font-size="24" letter-spacing="3">10 ARTS-FUELLED DAYS</tspan></text><path class="st1" d="M-26.1-1050.1H.1v22.7h-26.2zm348.2.2h26.2v22.7h-26.2zm-.3 104.4H348v22.7h-26.2zm-347.9-237.2H.1v22.7h-26.2zm348.2.2h26.2v22.7h-26.2zm-.3 72.7H348v22.7h-26.2zm.1 413.7h26.2v22.7h-26.2zm0 105.8h26.2v22.7h-26.2zM-.9-100.8H324v29.5H-.9z"/><text transform="translate(-.884 -83.759)" class="st2"><tspan x="0" y="0" font-family="SceneAltMedium" font-size="24" letter-spacing="3">10 ARTS-FUELLED DAYS</tspan></text><path class="st1" d="M321.9-123h26.2v22.7h-26.2zm0 40.7h26.2v22.7h-26.2zM69.1-476.6c7 0 12.7-5.7 12.7-12.7 0-7-5.7-12.7-12.7-12.7-7 0-12.7 5.7-12.7 12.7.1 7 5.7 12.7 12.7 12.7zm177.9 0c7 0 12.7-5.7 12.7-12.7 0-7-5.7-12.7-12.7-12.7-7 0-12.7 5.7-12.7 12.7 0 7 5.7 12.7 12.7 12.7z"/><path class="st2" d="M5.8-479.8h25.6v22.3h5.5v-49.9h-5.5v22.1H5.8v-22.1H.3v49.9h5.5zM53-462.9h31.7v5.4H53zm16.1-8.4c10 0 18.1-8.1 18.1-18.1 0-10-8.1-18.1-18.1-18.1-10 0-18.1 8.1-18.1 18.1.1 10 8.2 18.1 18.1 18.1zm0-30.7c7 0 12.7 5.7 12.7 12.7 0 7-5.7 12.7-12.7 12.7-7 0-12.7-5.7-12.7-12.7.1-7 5.7-12.7 12.7-12.7zm39.5 22.2h7.8l13.9 22.2h6.4l-14-22.5 2.2-.6c4.8-1.3 10.5-4.7 10.5-13 0-13.7-15.4-13.8-16.1-13.8h-16v6.7l9.9 15.6h-9.9v27.6h5.5v-22.2zm.3-22.2h10.3c3.7 0 10.6 1.7 10.6 8.3 0 4.7-3.5 7.8-9.3 8.3l-1.1.1-10.5-16.7zm42.9-5.4h5.5v49.9h-5.5zm21.6-.2v5.4h28.7l-27.4 44.5h38.4v-5.5h-28.6l27.3-44.4zm73.6 36.3c10 0 18.1-8.1 18.1-18.1 0-10-8.1-18.1-18.1-18.1-10 0-18.1 8.1-18.1 18.1 0 10 8.1 18.1 18.1 18.1zm0-30.7c7 0 12.7 5.7 12.7 12.7 0 7-5.7 12.7-12.7 12.7-7 0-12.7-5.7-12.7-12.7 0-7 5.7-12.7 12.7-12.7zm-16.1 39.1h31.7v5.4h-31.7zm55.5-36.3l29.2 41.7h6.3v-49.9h-5.4v41.7l-29.2-41.7H281v49.9h5.4z"/><path class="st1" d="M321.9-530.5h26.2v22.7h-26.2zm0 97.7h26.2v22.7h-26.2z"/><path d="M169.1-754.6H168v-16.2h1.1" class="st2"/><path class="st1" d="M-.1-963h325.2v24.5H-.1z"/><text transform="translate(-.132 -948.094)" class="st2" font-family="SceneAltMedium" font-size="21" letter-spacing="11">SUNSHINE COAST</text><path class="st1" d="M-.1-798.5h325.2v24.5H-.1z"/><text transform="translate(-.132 -783.604)" class="st2" font-family="SceneAltMedium" font-size="21" letter-spacing="11">SUNSHINE COAST</text><path class="st1" d="M-26.1-885.7H.1v22.7h-26.2zm348.2 129.1h26.2v22.7h-26.2zm0-128.9h26.2v22.7h-26.2z"/><g class="st2"><path fill="none" d="M172.1-443.7H323v24.5H172.1z"/><text transform="translate(200.014 -433.741)" font-family="SceneAltMedium" font-size="14">24 AUG - 2 SEP 2018</text><path fill="none" d="M-.9-443.7h164v24.5H-.9z"/><text transform="translate(-.884 -433.741)" font-family="SceneAltMedium" font-size="14">10 ARTS-FUELLED DAYS</text><path d="M169.1-430.3H168v-16.2h1.1v16.2z"/></g><path class="st1" d="M321.9-215.6h26.2v22.7h-26.2zm-347.4 0H.7v22.7h-26.2zm0 92.1H.7v22.7h-26.2zm347.4-59.2h26.2v22.7h-26.2z"/><g class="st2"><path fill="none" d="M172.1-193.8H323v24.5H172.1z"/><text transform="translate(200.014 -183.854)" font-family="SceneAltMedium" font-size="14">24 AUG - 2 SEP 2018</text><path fill="none" d="M-.9-193.8h164v24.5H-.9z"/><text transform="translate(-.884 -183.854)" font-family="SceneAltMedium" font-size="14">10 ARTS-FUELLED DAYS</text><path d="M169.1-180.4H168v-16.2h1.1v16.2z"/></g><path class="st1" d="M69.1-319.2c7 0 12.7-5.7 12.7-12.7 0-7-5.7-12.7-12.7-12.7-7 0-12.7 5.7-12.7 12.7.1 7 5.7 12.7 12.7 12.7zm177.9 0c7 0 12.7-5.7 12.7-12.7 0-7-5.7-12.7-12.7-12.7-7 0-12.7 5.7-12.7 12.7 0 7 5.7 12.7 12.7 12.7z"/><path class="st2" d="M5.8-322.3h25.6v22.2h5.5v-49.8h-5.5v22H5.8v-22H.3v49.8h5.5zM53-305.5h31.7v5.4H53zm16.1-8.3c10 0 18.1-8.1 18.1-18.1 0-10-8.1-18.1-18.1-18.1-10 0-18.1 8.1-18.1 18.1.1 10 8.2 18.1 18.1 18.1zm0-30.8c7 0 12.7 5.7 12.7 12.7 0 7-5.7 12.7-12.7 12.7-7 0-12.7-5.7-12.7-12.7.1-7 5.7-12.7 12.7-12.7zm39.5 22.3h7.8l13.9 22.2h6.4l-14-22.5 2.2-.6c4.8-1.3 10.5-4.7 10.5-13 0-13.7-15.4-13.8-16.1-13.8h-16v6.7l9.9 15.6h-9.9v27.6h5.5v-22.2zm.3-22.2h10.3c3.7 0 10.6 1.7 10.6 8.3 0 4.7-3.5 7.8-9.3 8.3l-1.1.1-10.5-16.7zm42.9-5.4h5.5v49.9h-5.5zm21.6-.3v5.5h28.7l-27.4 44.5h38.4v-5.5h-28.6l27.3-44.5zm73.6 36.4c10 0 18.1-8.1 18.1-18.1 0-10-8.1-18.1-18.1-18.1-10 0-18.1 8.1-18.1 18.1 0 10 8.1 18.1 18.1 18.1zm0-30.8c7 0 12.7 5.7 12.7 12.7 0 7-5.7 12.7-12.7 12.7-7 0-12.7-5.7-12.7-12.7 0-7 5.7-12.7 12.7-12.7zm-16.1 39.1h31.7v5.4h-31.7zm55.5-36.3l29.2 41.7h6.3v-49.8h-5.4v41.6l-29.2-41.6H281v49.8h5.4z"/><path class="st1" d="M321.9-373.1h26.2v22.7h-26.2zm0 97.8h26.2v22.7h-26.2z"/><path class="st1" d="M166.3-286.2h156.4v24.5H166.3z"/><text transform="translate(185.257 -276.267)" class="st2" font-family="SceneAltMedium" font-size="14" letter-spacing="1">24 AUG - 2 SEP 2018</text><path class="st1" d="M-.9-286.2h148v24.5H-.9z"/><text transform="translate(-.884 -276.267)" class="st2" font-family="SceneAltMedium" font-size="14" letter-spacing="1">SUNSHINE COAST</text><path class="st2" d="M155.3-272.9h-1.1V-289h1.1v16.1z"/><path class="st1" d="M69.1 31.1c7 0 12.7-5.7 12.7-12.7 0-7-5.7-12.7-12.7-12.7-7 0-12.7 5.7-12.7 12.7.1 7 5.7 12.7 12.7 12.7zM53.9-22.8h26.2V-.1H53.9z"/><path class="st1" d="M68.2-4.5h26.2v22.7H68.2z"/><g class="st2"><path fill="none" d="M172.1-767.9H323v24.5H172.1z"/><text transform="translate(200.014 -757.98)" font-family="SceneAltMedium" font-size="14">24 AUG - 2 SEP 2018</text><path fill="none" d="M-.9-767.9h164v24.5H-.9z"/><text transform="translate(-.884 -757.98)" font-family="SceneAltMedium" font-size="14">10 ARTS-FUELLED DAYS</text><path d="M169.1-754.6H168v-16.2h1.1v16.2z"/></g></g><path class="st3" d="M3 66.6h47.5v8.1H3zm24.1-12.4C42 54.2 54.2 42 54.2 27.1 54.2 12.1 42 0 27.1 0 12.1 0 0 12.1 0 27.1 0 42 12.1 54.2 27.1 54.2zm0-46.1c10.5 0 19 8.5 19 19s-8.5 19-19 19-19-8.5-19-19 8.5-19 19-19z" id="Horizon"/></svg>