<svg xmlns="http://www.w3.org/2000/svg" viewBox="0 0 1089.527 277.87"><path fill="none" d="M-86.966-43.234h1230.42v409.07H-86.966z"/><path d="M222.878 154.489c-6.314 19.593-31.787 84.153-42.296 79.847-15.885-6.512-20.122-157.239-10.522-223.195 1.795-11.031 2.184-17.758-2.616-1.135C131.83 133.36 152.245 258.714 178 265.856c17.204 4.777 36.757-43.467 47.647-105.463 3.64-16.091 1.245-21.362-2.769-5.904z" fill="#fff"/><path d="M122.001 116.568c-12.722-32.581-32.584-22.982-33.301-.682-1.296 40.566 15.27 93.234-25.344 22.953-42.571-73.674-51.591-87.67-57.857-98.252-6.268-10.594-7.354-10.262-2.348 1.68 65.34 155.598 76.595 166.84 92.473 166.475 7.206-.178 13.139-7.66 12.105-26.43-1.05-18.748-1.314-33.264-2.218-41.932-.892-8.68 3.574-10.512 7.922 2.347 4.337 12.856 15.263 33.63 29.98 112.665 1.685 5.434 2.776 5.096 2.171-3.779-.598-8.879-2.739-85.573-23.583-135.045zm100.895 148.264c4.02-34.132 38.712-81.896 61.295-108.582 4.709-5.53 6.157-8.577-1.822-1.953-49.285 38.905-82.229 99.73-75.214 118.845 3.277 8.92 14.421 2.914 15.741-8.31zM897.119 164.7c0 5.02-.724 9.59-2.186 13.74-1.44 4.155-3.551 7.706-6.297 10.648-2.752 2.949-6.044 5.227-9.877 6.848-3.837 1.61-8.14 2.422-12.9 2.422-4.685 0-8.954-.812-12.785-2.422-3.845-1.621-7.138-3.899-9.882-6.848-2.746-2.942-4.891-6.493-6.427-10.648-1.537-4.15-2.295-8.721-2.295-13.74 0-4.998.777-9.568 2.362-13.689 1.564-4.121 3.763-7.637 6.536-10.551 2.794-2.904 6.105-5.162 9.944-6.779 3.838-1.614 8.018-2.427 12.546-2.427 4.604 0 8.818.812 12.662 2.427 3.832 1.617 7.123 3.875 9.868 6.779 2.747 2.914 4.892 6.43 6.429 10.551 1.532 4.12 2.302 8.691 2.302 13.689zm-18.419 0c0-5.572-1.113-9.951-3.333-13.138-2.227-3.196-5.388-4.792-9.507-4.792-4.118 0-7.32 1.596-9.581 4.792-2.263 3.187-3.395 7.565-3.395 13.138 0 5.58 1.132 9.996 3.395 13.26 2.261 3.265 5.463 4.9 9.581 4.9 4.119 0 7.28-1.636 9.507-4.9 2.219-3.264 3.333-7.68 3.333-13.26zm49.774-33.447c5.356 0 9.821.61 13.388 1.831 3.565 1.215 6.426 2.963 8.577 5.232 2.151 2.267 3.669 5.028 4.563 8.273.895 3.246 1.338 6.856 1.338 10.835v37.689c-2.602.572-6.209 1.232-10.832 2.006-4.623.775-10.218 1.162-16.795 1.162-4.131 0-7.889-.369-11.248-1.099-3.381-.737-6.269-1.925-8.708-3.589-2.431-1.67-4.295-3.834-5.6-6.51-1.297-2.677-1.946-5.955-1.946-9.839 0-3.729.75-6.888 2.246-9.479 1.503-2.596 3.518-4.668 6.038-6.207 2.499-1.538 5.381-2.658 8.633-3.351 3.244-.688 6.61-1.034 10.101-1.034 2.356 0 4.44.105 6.27.305 1.83.21 3.3.475 4.44.793v-1.703c0-3.082-.936-5.554-2.801-7.426-1.862-1.863-5.108-2.795-9.733-2.795-3.094 0-5.989.377-8.182 1.188l-11.051-13.236c1.046-.32 2.378-.664 3.955-1.032a71.427 71.427 0 0 1 5.171-.976c1.87-.282 3.837-.533 5.907-.737a68.546 68.546 0 0 1 6.269-.301zm1.462 53.039c1.783 0 3.477-.035 5.108-.132 1.62-.072 2.925-.195 3.894-.354v-13.724c-.731-.165-1.823-.329-3.292-.492a36.153 36.153 0 0 0-4.008-.246c-1.702 0-3.313.104-4.802.306-1.502.195-2.827.587-3.962 1.16-1.134.561-2.036 1.33-2.684 2.305-.642.979-.963 2.186-.963 3.643 0 2.832.957 4.79 2.854 5.893 1.908 1.095 4.522 1.641 7.855 1.641zm74.171-35.342l27.497-32.84v16.19h18.658v16.62h-18.658v22.09c0 3.735.655 6.721 1.974 8.938 1.312 2.231 3.955 3.339 7.938 3.339 1.851 0 3.823-.318 3.823-.318l10.149 12.131c-2.145.873-4.534 1.628-7.171 2.266-2.623.638-5.846.955-9.664.955-4.862 0-8.886-.659-12.055-1.975-3.196-1.312-5.743-3.142-7.642-5.486-1.928-2.341-3.252-5.186-4.002-8.528-.766-3.331-1.141-7.029-1.141-11.08v-22.329l-9.706.027z" fill="#fff"/><path d="M827.095 178.534c-1.298.573-2.788 1.079-4.482 1.521a55.666 55.666 0 0 1-5.812 1.146c-2.178.318-4.643.482-7.383.482-4.364 0-8.065-.709-11.132-2.117-3.073-1.406-5.553-3.319-7.451-5.736-1.885-2.412-3.265-5.299-4.112-8.646-.846-3.349-1.271-6.959-1.271-10.831 0-4.836.649-8.958 1.94-12.346 1.284-3.393 2.999-6.152 5.138-8.295 2.145-2.136 4.608-3.689 7.389-4.654 2.78-.974 5.367-1.495 8.656-1.466 4.35.038 7.432.399 11.547 1.466 2.195.568 4.193 1.306 6.024 2.085 1.938-2.199 10.53-12.465 10.53-12.465-1.211-.779-2.775-1.862-5.233-3.02a46.353 46.353 0 0 0-5.448-2.153c-2.206-.722-4.713-1.302-7.622-1.82s-6.133-.784-9.685-.784c-6.133 0-11.815.965-17.06 2.906-5.245 1.934-9.767 4.779-13.558 8.531-3.791 3.742-6.775 8.351-8.96 13.797-2.173 5.445-3.265 11.637-3.265 18.576 0 13.959 3.564 24.719 10.709 32.286 7.144 7.582 17.53 11.369 31.163 11.369 6.379 0 11.993-.645 16.821-1.931 4.85-1.293 8.6-2.745 11.269-4.361l-7.265-14.174c-.466.209-.95.425-1.447.634zm155.177 5.113c3.307 0 5.649-.313 7.022-.961 1.372-.637 2.056-1.894 2.056-3.741 0-1.448-.895-2.713-2.672-3.804-1.768-1.092-4.465-2.312-8.093-3.688-2.827-1.037-5.389-2.126-7.683-3.256-2.295-1.129-4.248-2.481-5.866-4.061-1.613-1.566-2.862-3.441-3.744-5.618-.894-2.177-1.332-4.796-1.332-7.859 0-5.974 2.214-10.688 6.652-14.152 4.426-3.464 10.518-5.198 18.255-5.198 3.874 0 7.583.346 11.135 1.029 3.546.683 6.364 1.434 8.462 2.238l-10.251 12.24c-3.368-.908-4.938-.992-8.006-.992-5.654 0-8.462 1.566-8.462 4.707 0 .734.109 1.374.355 1.94.246.564.724 1.114 1.447 1.634.724.523 1.715 1.094 2.972 1.697 1.236.621 2.834 1.285 4.774 2.014 3.946 1.463 7.219 2.906 9.793 4.326 2.582 1.42 4.61 2.965 6.113 4.611 1.488 1.644 2.532 3.475 3.142 5.483.608 2.007.901 4.339.901 6.989 0 6.269-2.349 11-7.069 14.219-4.727 3.218-11.386 4.83-20.017 4.83-5.656 0-10.342-.486-14.091-1.445-3.749-.978-6.352-1.777-7.8-2.43l10.26-12.238c4.474 1.299 8.606 1.486 11.747 1.486zm-382.007-73.315v18.016h18.016zm-263.758 19.136c-3.374-1.538-8.913-2.513-12.942-2.513-4.515 0-7.759.625-9.732 1.875-1.98 1.254-2.964 3.16-2.964 5.746 0 1.521.368 2.825 1.093 3.871.724 1.049 1.748 1.994 3.08 2.832 1.332.857 2.861 1.621 4.589 2.304 1.742.688 3.654 1.394 5.751 2.112 4.357 1.617 8.135 3.21 11.365 4.781 3.224 1.576 5.907 3.406 8.045 5.509a19.779 19.779 0 0 1 4.773 7.378c1.052 2.816 1.571 6.237 1.571 10.267 0 7.808-2.738 13.863-8.223 18.173-5.478 4.314-13.749 6.473-24.785 6.473-3.716 0-7.055-.228-10.047-.673-2.978-.441-5.62-.984-7.922-1.63-2.288-.643-4.268-1.326-5.915-2.055-1.66-.719-2.329-1.006-3.456-1.647l10.695-12.772s1.012.429 3.15 1.074c3.674 1.102 8.174 1.625 13.495 1.625 2.656 0 4.849-.217 6.583-.663 1.735-.442 3.129-1.044 4.181-1.804 1.045-.765 1.77-1.671 2.172-2.719.403-1.047.601-2.217.601-3.504 0-2.734-1.284-5.01-3.865-6.831-2.582-1.811-7.015-3.761-13.298-5.859a99.66 99.66 0 0 1-8.229-3.329 29.859 29.859 0 0 1-7.376-4.715c-2.179-1.895-3.947-4.191-5.32-6.891-1.366-2.701-2.056-5.988-2.056-9.861 0-3.865.724-7.354 2.171-10.461a22.428 22.428 0 0 1 6.168-7.92c2.663-2.172 5.888-3.844 9.678-5.019 3.797-1.165 8.065-1.758 12.819-1.758 5.648 0 10.524.614 14.636 1.821 4.105 1.205 7.499 2.54 10.156 3.988l-10.642 12.795zm168.031 54.179c3.3 0 5.642-.313 7.008-.961 1.373-.637 2.062-1.894 2.062-3.741 0-1.448-.895-2.713-2.664-3.804-1.774-1.092-4.479-2.312-8.1-3.688-2.827-1.037-5.389-2.126-7.676-3.256-2.31-1.129-4.262-2.481-5.874-4.061-1.612-1.566-2.862-3.441-3.743-5.618-.895-2.177-1.332-4.796-1.332-7.859 0-5.974 2.213-10.688 6.646-14.152 4.439-3.464 10.525-5.198 18.276-5.198 3.852 0 7.567.346 11.112 1.029 3.552.683 6.379 1.434 8.476 2.238l-10.251 12.24c-3.374-.908-4.952-.992-8.019-.992-5.642 0-8.462 1.566-8.462 4.707 0 .734.116 1.374.361 1.94.239.564.725 1.114 1.455 1.634.724.523 1.701 1.094 2.965 1.697 1.249.621 2.834 1.285 4.767 2.014 3.955 1.463 7.219 2.906 9.801 4.326 2.582 1.42 4.617 2.965 6.112 4.611 1.496 1.644 2.548 3.475 3.148 5.483.615 2.007.908 4.339.908 6.989 0 6.269-2.349 11-7.082 14.219-4.719 3.218-11.392 4.83-20.018 4.83-5.648 0-10.341-.486-14.09-1.445-3.75-.978-6.352-1.777-7.8-2.43l10.252-12.238c4.475 1.299 8.615 1.486 11.762 1.486zm32.736 12.931v-86.251h18.023v22.911c1.21-.404 2.767-.774 4.659-1.147a29.457 29.457 0 0 1 5.505-.545c5.163 0 9.452.71 12.873 2.12 3.429 1.412 6.175 3.41 8.23 5.988 2.048 2.582 3.504 5.65 4.351 9.192.846 3.543 1.269 7.495 1.269 11.849v35.883h-18.022v-33.709c0-5.803-.739-9.911-2.234-12.338-1.489-2.412-4.248-3.623-8.285-3.623-1.618 0-3.127.145-4.526.424a45.68 45.68 0 0 0-3.819.906v48.34h-18.024zm81.007 0h-18.016v-63.581h18.016v63.581zm8.75-61.4c3.066-.883 7.014-1.712 11.857-2.477 4.827-.763 9.917-1.155 15.237-1.155 5.396 0 9.89.71 13.476 2.12 3.592 1.412 6.433 3.41 8.529 5.988 2.098 2.582 3.586 5.65 4.474 9.192.887 3.543 1.324 7.495 1.324 11.849v35.883h-18.01v-33.709c0-5.803-.765-9.911-2.302-12.338-1.529-2.412-4.384-3.623-8.584-3.623a49.65 49.65 0 0 0-4.111.183 75.63 75.63 0 0 0-3.879.422v49.066h-18.011v-61.401zm-205.283 0c3.066-.883 7.016-1.712 11.857-2.477 4.835-.763 9.924-1.155 15.236-1.155 5.396 0 9.89.71 13.482 2.12 3.586 1.412 6.434 3.41 8.53 5.988 2.097 2.582 3.593 5.65 4.474 9.192.888 3.543 1.332 7.495 1.332 11.849v35.883h-18.023v-33.709c0-5.803-.766-9.911-2.295-12.338-1.537-2.412-4.392-3.623-8.586-3.623-1.291 0-2.663.062-4.111.183a73.838 73.838 0 0 0-3.872.422v49.066h-18.024v-61.401zm-9.124 59.469c-3.066.879-7.008 1.709-11.85 2.473-4.836.775-9.917 1.156-15.237 1.156-5.402 0-9.889-.709-13.481-2.121-3.586-1.412-6.434-3.405-8.531-5.982-2.096-2.576-3.578-5.633-4.473-9.182-.889-3.541-1.325-7.482-1.325-11.832v-35.92h18.018v33.748c0 5.796.765 9.902 2.287 12.312 1.544 2.417 4.399 3.629 8.592 3.629 1.291 0 2.664-.059 4.118-.188a61.719 61.719 0 0 0 3.866-.42v-49.082h18.017v61.409h-.001zm308.179 3.656c2.145 0 4.303-.109 6.454-.336l16.2-19.388v-.045c-3.079 1.72-7.322 2.796-10.498 3.396a51.74 51.74 0 0 1-9.739.912c-5.156 0-9.274-1.084-12.334-3.262-3.067-2.176-4.801-5.116-5.197-8.814h40.876c.075-.965.157-2.067.246-3.323.068-1.247.108-2.395.108-3.447 0-10.713-2.615-18.847-7.854-24.368-5.244-5.52-12.382-8.283-21.404-8.283-3.871 0-7.648.722-11.31 2.178-3.681 1.457-6.911 3.588-9.739 6.405-2.82 2.827-5.095 6.352-6.822 10.577-1.742 4.244-2.602 9.18-2.602 14.824 0 4.672.662 9.02 1.993 13.041 1.325 4.035 3.381 7.508 6.161 10.445 2.787 2.941 6.29 5.259 10.525 6.952 4.234 1.694 9.212 2.536 14.936 2.536zm-13.968-44.402a12.157 12.157 0 0 1 2.233-3.93c.979-1.132 2.179-2.034 3.635-2.727 1.447-.682 3.175-1.028 5.197-1.028 2.09 0 3.845.362 5.258 1.091 1.414.729 2.582 1.649 3.512 2.783a11.442 11.442 0 0 1 2.055 3.865c.438 1.457.703 2.945.786 4.48h-23.822c.239-1.534.614-3.04 1.146-4.534zM320.357 277.87c-3.999 0-7.635-.656-10.916-1.975-3.275-1.313-6.1-3.225-8.454-5.74-2.347-2.512-4.168-5.621-5.457-9.315-1.283-3.694-1.925-7.914-1.925-12.681 0-4.758.724-8.982 2.177-12.676 1.446-3.693 3.404-6.8 5.867-9.314a24.678 24.678 0 0 1 8.617-5.739c3.289-1.321 6.775-1.971 10.5-1.971 2.353 0 4.476.163 6.358.491 1.89.328 3.527.711 4.926 1.146 1.398.445 2.531.881 3.405 1.315.872.442 1.473.77 1.808.986l-2.3 6.558c-.498-.327-1.207-.682-2.128-1.062a43.76 43.76 0 0 0-3.166-1.145 27.437 27.437 0 0 0-3.854-.948 24.02 24.02 0 0 0-4.224-.368c-3.008 0-5.725.521-8.125 1.56a16.562 16.562 0 0 0-6.153 4.516c-1.699 1.969-3.003 4.363-3.897 7.184-.907 2.81-1.365 5.968-1.365 9.469 0 3.395.403 6.484 1.194 9.279.799 2.787 1.985 5.184 3.568 7.178 1.59 1.99 3.568 3.537 5.956 4.639 2.374 1.092 5.151 1.643 8.323 1.643 3.663 0 6.707-.381 9.114-1.156 2.402-.758 4.211-1.441 5.418-2.047l2.047 6.564c-.382.276-1.071.617-2.047 1.021-.989.415-2.218.806-3.698 1.19-1.48.379-3.198.713-5.171.982a47.04 47.04 0 0 1-6.398.416zm19.519-29.711c0-4.861.729-9.16 2.176-12.886 1.453-3.72 3.418-6.817 5.908-9.304 2.49-2.499 5.383-4.363 8.699-5.628 3.31-1.261 6.822-1.883 10.548-1.883 3.663 0 7.13.622 10.382 1.883a24.239 24.239 0 0 1 8.571 5.628c2.462 2.486 4.421 5.584 5.867 9.304 1.439 3.726 2.176 8.024 2.176 12.886 0 4.88-.736 9.17-2.176 12.887-1.446 3.733-3.405 6.82-5.867 9.31-2.464 2.493-5.322 4.376-8.571 5.622-3.252 1.26-6.719 1.892-10.382 1.892-3.726 0-7.238-.633-10.548-1.892a24.19 24.19 0 0 1-8.699-5.622c-2.49-2.489-4.455-5.576-5.908-9.31-1.446-3.717-2.176-8.007-2.176-12.887zm8.371 0c0 3.447.436 6.582 1.31 9.398.873 2.818 2.129 5.212 3.738 7.181a16.468 16.468 0 0 0 5.909 4.561c2.326 1.056 4.933 1.598 7.832 1.598 2.905 0 5.505-.542 7.798-1.598a16.65 16.65 0 0 0 5.875-4.561c1.603-1.969 2.853-4.362 3.732-7.181.866-2.816 1.304-5.951 1.304-9.398 0-3.442-.438-6.573-1.304-9.393-.879-2.814-2.129-5.213-3.732-7.182a16.593 16.593 0 0 0-5.875-4.557c-2.293-1.059-4.893-1.598-7.798-1.598-2.899 0-5.506.539-7.832 1.598a16.413 16.413 0 0 0-5.909 4.557c-1.609 1.969-2.865 4.367-3.738 7.182-.874 2.82-1.31 5.951-1.31 9.393zm75.819 29.711c-3.718 0-6.951-.572-9.688-1.728-2.737-1.143-4.98-2.721-6.727-4.715-1.748-2.001-3.051-4.366-3.896-7.094-.854-2.742-1.268-5.694-1.268-8.86v-35.705h7.955v34.796c0 5.69 1.257 9.814 3.771 12.388 2.52 2.576 5.801 3.857 9.853 3.857 2.019 0 3.869-.307 5.542-.944a10.963 10.963 0 0 0 4.297-2.913c1.207-1.318 2.142-2.992 2.797-5.043.655-2.055.982-4.498.982-7.345v-34.796h7.962v35.705c0 3.166-.43 6.118-1.268 8.86-.853 2.728-2.163 5.093-3.938 7.094-1.78 1.994-4.024 3.571-6.734 4.715-2.709 1.156-5.922 1.728-9.64 1.728zm72.073-1.238a466.488 466.488 0 0 0-4.148-6.814 263.574 263.574 0 0 0-5.048-7.822 417.862 417.862 0 0 0-5.621-8.255 382.297 382.297 0 0 0-5.779-8.084 299.398 299.398 0 0 0-5.582-7.346 155.228 155.228 0 0 0-5.008-6.066v44.387h-7.798v-56.863h6.318c2.579 2.736 5.322 5.93 8.249 9.561a368.355 368.355 0 0 1 8.699 11.243 340.505 340.505 0 0 1 8.124 11.363c2.545 3.722 4.688 7.035 6.441 9.928v-42.096h7.797v56.863h-6.644v.001zm42.061 1.238c-3.991 0-7.634-.656-10.915-1.975-3.283-1.313-6.101-3.225-8.446-5.74-2.354-2.512-4.176-5.621-5.465-9.315-1.283-3.694-1.925-7.914-1.925-12.681 0-4.758.729-8.982 2.178-12.676 1.444-3.693 3.402-6.8 5.867-9.314a24.665 24.665 0 0 1 8.616-5.739c3.281-1.321 6.781-1.971 10.499-1.971 2.347 0 4.477.163 6.366.491 1.883.328 3.521.711 4.919 1.146 1.391.445 2.53.881 3.405 1.315.873.442 1.48.77 1.808.986l-2.293 6.558c-.497-.327-1.213-.682-2.143-1.062a43.263 43.263 0 0 0-3.157-1.145 27.837 27.837 0 0 0-3.855-.948 24.026 24.026 0 0 0-4.229-.368c-3.002 0-5.71.521-8.118 1.56a16.684 16.684 0 0 0-6.16 4.516c-1.693 1.969-2.989 4.363-3.889 7.184-.908 2.81-1.358 5.968-1.358 9.469 0 3.395.388 6.484 1.188 9.279.79 2.787 1.984 5.184 3.574 7.178 1.583 1.99 3.568 3.537 5.95 4.639 2.381 1.092 5.149 1.643 8.329 1.643 3.664 0 6.694-.381 9.108-1.156 2.401-.758 4.202-1.441 5.41-2.047l2.054 6.564c-.382.276-1.07.617-2.054 1.021-.982.415-2.217.806-3.691 1.19-1.48.379-3.198.713-5.163.982a47.44 47.44 0 0 1-6.41.416zm26.014-58.101h7.956v56.863h-7.956v-56.863zm54.04 49.972v6.891h-34.22v-56.863h7.957v49.973l26.263-.001zm452.407-91.375V181h-5.136v14.097h-3.057V181l-5.144-.001v-2.633zm4.694 0c.359.614.747 1.352 1.191 2.238.431.877.868 1.814 1.32 2.784.454.983.908 1.965 1.332 2.976.453 1.018.868 1.936 1.229 2.781.364-.846.775-1.763 1.207-2.781.443-1.011.867-1.993 1.321-2.976a93.44 93.44 0 0 1 1.341-2.784 39.13 39.13 0 0 1 1.172-2.238h2.74c.146 1.219.299 2.511.422 3.898.131 1.372.246 2.787.359 4.223.093 1.434.197 2.879.291 4.352.096 1.454.171 2.869.247 4.258h-2.993c-.075-1.955-.154-3.957-.238-6.023-.102-2.06-.225-4.04-.415-5.977-.16.368-.384.812-.622 1.33-.244.512-.5 1.076-.765 1.682-.296.604-.557 1.218-.847 1.859-.278.651-.544 1.276-.823 1.889-.266.595-.51 1.151-.729 1.682-.226.519-.423.971-.584 1.328h-2.277c-.149-.357-.347-.809-.557-1.338-.237-.548-.491-1.115-.755-1.7-.254-.614-.547-1.236-.819-1.889-.266-.634-.558-1.255-.831-1.84-.273-.604-.529-1.161-.772-1.689a39.275 39.275 0 0 0-.627-1.314 120.678 120.678 0 0 0-.406 5.977c-.093 2.066-.17 4.068-.224 6.023h-3.006c.056-1.389.136-2.815.229-4.306.092-1.473.188-2.946.302-4.398.109-1.454.215-2.881.358-4.239.134-1.37.271-2.626.407-3.788h2.822z" fill="#fff"/></svg>