<svg version="1.1" id="Layer_1" xmlns="http://www.w3.org/2000/svg" x="0" y="0" viewBox="0 0 47.8 40.4" xml:space="preserve"><style type="text/css">.st0{fill:#fff}</style><g id="Group_15" transform="translate(-163.135 -223.515)"><path id="Path_35" class="st0" d="M209 242.8c-.6-.7-1.2-1.4-1.9-2.1-1.4-1.4-2.9-2.6-4.5-3.7-2.2-1.5-4.5-2.7-7-3.6-3-1.1-6.1-1.6-9.2-1.6-3 0-6 .5-8.9 1.6-2.3.9-4.6 2.1-6.6 3.6-2.3 1.6-4.3 3.6-6 5.8-.4.5-.4 1.2 0 1.7 1.7 2.2 3.7 4.2 6 5.8 2 1.5 4.2 2.7 6.6 3.6 2.8 1.1 5.8 1.6 8.9 1.6 3.2 0 6.3-.6 9.2-1.6 2.5-.9 4.8-2.1 7-3.6 1.6-1.1 3.1-2.3 4.5-3.7.7-.6 1.3-1.3 1.9-2.1.4-.4.4-1.1 0-1.7zm-32.6 5.4c.4 1.1 1.1 2.1 1.8 2.9-2-.8-3.8-1.8-5.5-3.1-1.1-.8-2.1-1.7-3.1-2.6-1-1-1-2.5 0-3.5s2-1.8 3.1-2.6c1.7-1.2 3.5-2.3 5.5-3.1-2.8 3.4-3.5 8-1.8 12zm10.6 4.3c-4.8 0-8.7-3.9-8.7-8.7s3.9-8.7 8.7-8.7 8.7 3.9 8.7 8.7c.1 4.7-3.9 8.6-8.7 8.7zm17.2-7c-1 .9-2 1.7-3.2 2.5-1.5 1-3.1 1.9-4.8 2.7 3.1-4.1 3.1-9.8 0-13.9 1.7.7 3.3 1.6 4.8 2.7 1.1.8 2.2 1.6 3.2 2.5 1 .9 1.1 2.5.2 3.5-.1-.1-.2 0-.2 0z"/><circle id="Ellipse_1" class="st0" cx="187" cy="243.7" r="4.4"/></g></svg>